<svg data-v-423bf9ae="" xmlns="http://www.w3.org/2000/svg" viewBox="0 0 215.5598376802074 60" class="font"><!----><!----><!----><g data-v-423bf9ae="" id="8f6051a8-1a76-4903-b8b8-c31fee6d3107" fill="white" transform="matrix(5.791505813598633,0,0,5.791505813598633,-1.2741204500198364,-20.27027130126953)"><path d="M4.16 13.72L0.22 13.72L0.22 13.10L1.37 12.82L1.37 4.75L0.22 4.59L0.22 4.05L2.48 3.50L3.01 3.50L3.01 12.82L4.16 13.10L4.16 13.72ZM8.08 13.86L8.08 13.86Q6.34 13.86 5.57 12.91L5.57 12.91L5.57 12.91Q4.80 11.96 4.80 10.30L4.80 10.30L4.80 10.30Q4.80 8.44 5.65 7.57L5.65 7.57L5.65 7.57Q6.50 6.71 7.94 6.71L7.94 6.71L7.94 6.71Q9.37 6.71 10.02 7.35L10.02 7.35L10.02 7.35Q10.68 7.99 10.68 9.37L10.68 9.37L10.68 9.37Q10.68 9.84 10.64 10.22L10.64 10.22L6.57 10.22L6.57 10.60L6.57 10.60Q6.57 11.82 7.06 12.37L7.06 12.37L7.06 12.37Q7.56 12.92 8.51 12.92L8.51 12.92L8.51 12.92Q9.35 12.92 10.50 12.60L10.50 12.60L10.61 13.15L10.61 13.15Q9.55 13.86 8.08 13.86L8.08 13.86ZM6.59 9.55L9.00 9.41L9.00 9.10L9.00 9.10Q9.00 8.34 8.79 7.96L8.79 7.96L8.79 7.96Q8.57 7.57 8.01 7.57L8.01 7.57L8.01 7.57Q7.24 7.57 6.94 8.04L6.94 8.04L6.94 8.04Q6.64 8.51 6.59 9.55L6.59 9.55ZM15.58 13.55L15.58 13.55Q15.16 13.68 14.53 13.76L14.53 13.76L14.53 13.76Q13.90 13.85 13.52 13.85L13.52 13.85L13.52 13.85Q12.84 13.85 12.58 13.54L12.58 13.54L12.58 13.54Q12.32 13.23 12.32 12.74L12.32 12.74L12.32 7.74L11.31 7.74L11.31 7.14L12.46 6.68L13.20 5.28L13.94 5.28L13.94 6.83L15.78 6.83L15.78 7.84L13.94 7.73L13.94 12.66L15.58 12.96L15.58 13.55ZM20.22 5.14L20.22 5.14Q21.55 5.14 22.43 5.78L22.43 5.78L22.43 5.78Q23.31 6.41 23.31 7.59L23.31 7.59L23.31 7.59Q23.31 8.48 22.88 9.09L22.88 9.09L22.88 9.09Q22.44 9.70 21.73 10.00L21.73 10.00L21.73 10.00Q21.03 10.29 20.23 10.29L20.23 10.29L20.23 10.29Q20.06 10.29 19.77 10.27L19.77 10.27L19.77 10.27Q19.49 10.25 19.33 10.21L19.33 10.21L19.33 12.84L20.82 13.13L20.82 13.72L16.49 13.72L16.49 13.15L17.70 12.84L17.70 6.03L16.48 5.73L16.48 5.14L20.22 5.14ZM19.33 9.58L19.33 9.58Q19.56 9.63 19.91 9.63L19.91 9.63L19.91 9.63Q20.69 9.63 21.15 9.11L21.15 9.11L21.15 9.11Q21.62 8.60 21.62 7.69L21.62 7.69L21.62 7.69Q21.62 6.86 21.22 6.39L21.22 6.39L21.22 6.39Q20.82 5.92 20.16 5.92L20.16 5.92L20.16 5.92Q19.71 5.92 19.33 6.01L19.33 6.01L19.33 9.58ZM28.59 13.06L28.59 13.06Q27.50 13.86 26.32 13.86L26.32 13.86L26.32 13.86Q25.55 13.86 25.02 13.37L25.02 13.37L25.02 13.37Q24.49 12.88 24.22 12.08L24.22 12.08L24.22 12.08Q23.95 11.27 23.95 10.30L23.95 10.30L23.95 10.30Q23.95 8.62 24.75 7.67L24.75 7.67L24.75 7.67Q25.55 6.71 26.99 6.71L26.99 6.71L26.99 6.71Q27.36 6.71 27.70 6.78L27.70 6.78L27.70 6.78Q28.04 6.85 28.28 6.94L28.28 6.94L28.28 6.94Q28.52 7.03 28.55 7.06L28.55 7.06L28.55 4.75L27.38 4.59L27.38 4.05L29.64 3.50L30.18 3.50L30.18 12.68L31.32 13.02L31.32 13.55L31.32 13.55Q30.46 13.79 29.79 13.79L29.79 13.79L29.79 13.79Q29.37 13.79 29.02 13.59L29.02 13.59L29.02 13.59Q28.67 13.40 28.59 13.06L28.59 13.06ZM27.12 12.84L27.12 12.84Q27.52 12.84 27.92 12.68L27.92 12.68L27.92 12.68Q28.32 12.53 28.55 12.33L28.55 12.33L28.55 7.94L28.55 7.94Q28.31 7.76 27.96 7.65L27.96 7.65L27.96 7.65Q27.62 7.55 27.29 7.55L27.29 7.55L27.29 7.55Q26.52 7.55 26.12 8.27L26.12 8.27L26.12 8.27Q25.72 9.00 25.72 10.28L25.72 10.28L25.72 10.28Q25.72 11.47 26.06 12.15L26.06 12.15L26.06 12.15Q26.40 12.84 27.12 12.84L27.12 12.84ZM31.82 13.72L31.82 13.13L32.97 12.82L32.97 7.74L31.84 7.74L31.84 7.15L32.97 6.71L32.97 6.71Q32.97 5.19 33.78 4.35L33.78 4.35L33.78 4.35Q34.59 3.50 36.02 3.50L36.02 3.50L36.02 3.50Q36.39 3.50 36.83 3.61L36.83 3.61L36.83 3.61Q37.28 3.71 37.44 3.82L37.44 3.82L37.20 5.70L36.43 5.70L36.20 4.65L36.20 4.65Q35.94 4.55 35.67 4.55L35.67 4.55L35.67 4.55Q35.03 4.55 34.82 5.01L34.82 5.01L34.82 5.01Q34.61 5.46 34.61 6.38L34.61 6.38L34.61 6.83L36.71 6.83L36.71 7.84L34.62 7.71L34.62 12.78L36.25 13.08L36.25 13.72L31.82 13.72Z"></path></g><!----><!----></svg>